<mxfile host="app.diagrams.net" agent="Mozilla/5.0 (Macintosh; Intel Mac OS X 10_15_7) AppleWebKit/537.36 (KHTML, like Gecko) Chrome/134.0.0.0 Safari/537.36" version="26.2.8">
  <diagram name="第 1 页" id="dLoQEgxE5ASp6zTwiykf">
    <mxGraphModel dx="1588" dy="651" grid="0" gridSize="10" guides="1" tooltips="1" connect="1" arrows="1" fold="1" page="0" pageScale="1" pageWidth="827" pageHeight="1169" math="0" shadow="0">
      <root>
        <mxCell id="0" />
        <mxCell id="1" parent="0" />
        <mxCell id="Xzct7YOpVdeasxDt4WnP-22" value="" style="rounded=0;whiteSpace=wrap;html=1;dashed=1;" vertex="1" parent="1">
          <mxGeometry x="343" y="158.25" width="215" height="85.75" as="geometry" />
        </mxCell>
        <mxCell id="Xzct7YOpVdeasxDt4WnP-13" value="" style="rounded=0;whiteSpace=wrap;html=1;dashed=1;" vertex="1" parent="1">
          <mxGeometry x="125" y="306" width="510" height="161" as="geometry" />
        </mxCell>
        <mxCell id="Xzct7YOpVdeasxDt4WnP-6" style="edgeStyle=orthogonalEdgeStyle;rounded=0;orthogonalLoop=1;jettySize=auto;html=1;" edge="1" parent="1" source="Xzct7YOpVdeasxDt4WnP-3" target="Xzct7YOpVdeasxDt4WnP-5">
          <mxGeometry relative="1" as="geometry" />
        </mxCell>
        <mxCell id="Xzct7YOpVdeasxDt4WnP-7" value="保存为&lt;br&gt;任务" style="edgeLabel;html=1;align=center;verticalAlign=middle;resizable=0;points=[];" vertex="1" connectable="0" parent="Xzct7YOpVdeasxDt4WnP-6">
          <mxGeometry x="-0.056" relative="1" as="geometry">
            <mxPoint y="1" as="offset" />
          </mxGeometry>
        </mxCell>
        <mxCell id="Xzct7YOpVdeasxDt4WnP-3" value="MQ消息" style="shape=card;whiteSpace=wrap;html=1;fillColor=#f5f5f5;fontColor=#333333;strokeColor=#666666;" vertex="1" parent="1">
          <mxGeometry x="-14" y="162.5" width="63" height="63" as="geometry" />
        </mxCell>
        <mxCell id="Xzct7YOpVdeasxDt4WnP-17" style="edgeStyle=orthogonalEdgeStyle;rounded=0;orthogonalLoop=1;jettySize=auto;html=1;entryX=0.5;entryY=0;entryDx=0;entryDy=0;" edge="1" parent="1" source="Xzct7YOpVdeasxDt4WnP-5" target="Xzct7YOpVdeasxDt4WnP-8">
          <mxGeometry relative="1" as="geometry" />
        </mxCell>
        <mxCell id="Xzct7YOpVdeasxDt4WnP-18" value="拉取INIT、FAILED&lt;div&gt;状态的任务&lt;/div&gt;" style="edgeLabel;html=1;align=center;verticalAlign=middle;resizable=0;points=[];" vertex="1" connectable="0" parent="Xzct7YOpVdeasxDt4WnP-17">
          <mxGeometry x="-0.3151" relative="1" as="geometry">
            <mxPoint as="offset" />
          </mxGeometry>
        </mxCell>
        <mxCell id="Xzct7YOpVdeasxDt4WnP-20" style="edgeStyle=orthogonalEdgeStyle;rounded=0;orthogonalLoop=1;jettySize=auto;html=1;entryX=0;entryY=0.5;entryDx=0;entryDy=0;" edge="1" parent="1" source="Xzct7YOpVdeasxDt4WnP-5" target="Xzct7YOpVdeasxDt4WnP-19">
          <mxGeometry relative="1" as="geometry" />
        </mxCell>
        <mxCell id="Xzct7YOpVdeasxDt4WnP-23" value="拉取RUNNING&lt;div&gt;任务&lt;/div&gt;" style="edgeLabel;html=1;align=center;verticalAlign=middle;resizable=0;points=[];" vertex="1" connectable="0" parent="Xzct7YOpVdeasxDt4WnP-20">
          <mxGeometry x="-0.4429" y="1" relative="1" as="geometry">
            <mxPoint x="19" y="-2" as="offset" />
          </mxGeometry>
        </mxCell>
        <mxCell id="Xzct7YOpVdeasxDt4WnP-5" value="job任务&lt;br&gt;数据库" style="shape=cylinder3;whiteSpace=wrap;html=1;boundedLbl=1;backgroundOutline=1;size=15;fillColor=#ffe6cc;strokeColor=#d79b00;" vertex="1" parent="1">
          <mxGeometry x="174" y="154" width="60" height="80" as="geometry" />
        </mxCell>
        <mxCell id="Xzct7YOpVdeasxDt4WnP-10" style="edgeStyle=orthogonalEdgeStyle;rounded=0;orthogonalLoop=1;jettySize=auto;html=1;entryX=0;entryY=0.5;entryDx=0;entryDy=0;" edge="1" parent="1" source="Xzct7YOpVdeasxDt4WnP-8" target="Xzct7YOpVdeasxDt4WnP-9">
          <mxGeometry relative="1" as="geometry" />
        </mxCell>
        <mxCell id="Xzct7YOpVdeasxDt4WnP-8" value="根据sku_id&lt;br&gt;获取基础信息" style="rounded=1;whiteSpace=wrap;html=1;fillColor=#dae8fc;strokeColor=#6c8ebf;" vertex="1" parent="1">
          <mxGeometry x="151.5" y="336" width="104.5" height="41" as="geometry" />
        </mxCell>
        <mxCell id="Xzct7YOpVdeasxDt4WnP-12" style="edgeStyle=orthogonalEdgeStyle;rounded=0;orthogonalLoop=1;jettySize=auto;html=1;entryX=0;entryY=0.5;entryDx=0;entryDy=0;" edge="1" parent="1" source="Xzct7YOpVdeasxDt4WnP-9" target="Xzct7YOpVdeasxDt4WnP-11">
          <mxGeometry relative="1" as="geometry" />
        </mxCell>
        <mxCell id="Xzct7YOpVdeasxDt4WnP-16" style="edgeStyle=orthogonalEdgeStyle;rounded=0;orthogonalLoop=1;jettySize=auto;html=1;entryX=0.5;entryY=0;entryDx=0;entryDy=0;" edge="1" parent="1" source="Xzct7YOpVdeasxDt4WnP-9" target="Xzct7YOpVdeasxDt4WnP-14">
          <mxGeometry relative="1" as="geometry" />
        </mxCell>
        <mxCell id="Xzct7YOpVdeasxDt4WnP-9" value="针对图片OCR" style="rounded=1;whiteSpace=wrap;html=1;fillColor=#dae8fc;strokeColor=#6c8ebf;" vertex="1" parent="1">
          <mxGeometry x="329" y="336" width="104.5" height="41" as="geometry" />
        </mxCell>
        <mxCell id="Xzct7YOpVdeasxDt4WnP-11" value="生成标签" style="rounded=1;whiteSpace=wrap;html=1;fillColor=#dae8fc;strokeColor=#6c8ebf;" vertex="1" parent="1">
          <mxGeometry x="507" y="336" width="104.5" height="41" as="geometry" />
        </mxCell>
        <mxCell id="Xzct7YOpVdeasxDt4WnP-14" value="OCR缓存" style="rounded=1;whiteSpace=wrap;html=1;fillColor=#fff2cc;strokeColor=#d6b656;" vertex="1" parent="1">
          <mxGeometry x="329" y="412" width="104.5" height="31" as="geometry" />
        </mxCell>
        <mxCell id="Xzct7YOpVdeasxDt4WnP-19" value="监控超时的RUNNING&lt;br&gt;任务，设置为FAILED" style="rounded=1;whiteSpace=wrap;html=1;fillColor=#dae8fc;strokeColor=#6c8ebf;" vertex="1" parent="1">
          <mxGeometry x="374" y="173.5" width="153" height="41" as="geometry" />
        </mxCell>
        <mxCell id="Xzct7YOpVdeasxDt4WnP-21" value="后台循环任务" style="text;html=1;align=center;verticalAlign=middle;resizable=0;points=[];autosize=1;strokeColor=none;fillColor=none;" vertex="1" parent="1">
          <mxGeometry x="125" y="441" width="90" height="26" as="geometry" />
        </mxCell>
        <mxCell id="Xzct7YOpVdeasxDt4WnP-24" value="后台循环任务" style="text;html=1;align=center;verticalAlign=middle;resizable=0;points=[];autosize=1;strokeColor=none;fillColor=none;" vertex="1" parent="1">
          <mxGeometry x="343" y="218" width="90" height="26" as="geometry" />
        </mxCell>
        <mxCell id="Xzct7YOpVdeasxDt4WnP-25" value="MQ消息" style="shape=card;whiteSpace=wrap;html=1;fillColor=#f5f5f5;fontColor=#333333;strokeColor=#666666;" vertex="1" parent="1">
          <mxGeometry x="729" y="325" width="63" height="63" as="geometry" />
        </mxCell>
        <mxCell id="Xzct7YOpVdeasxDt4WnP-26" style="edgeStyle=orthogonalEdgeStyle;rounded=0;orthogonalLoop=1;jettySize=auto;html=1;entryX=0;entryY=0;entryDx=0;entryDy=30;entryPerimeter=0;" edge="1" parent="1" source="Xzct7YOpVdeasxDt4WnP-11" target="Xzct7YOpVdeasxDt4WnP-25">
          <mxGeometry relative="1" as="geometry" />
        </mxCell>
        <mxCell id="Xzct7YOpVdeasxDt4WnP-27" value="发送成功&lt;div&gt;的结果数据&lt;/div&gt;" style="edgeLabel;html=1;align=center;verticalAlign=middle;resizable=0;points=[];" vertex="1" connectable="0" parent="Xzct7YOpVdeasxDt4WnP-26">
          <mxGeometry x="0.0394" relative="1" as="geometry">
            <mxPoint x="6" as="offset" />
          </mxGeometry>
        </mxCell>
      </root>
    </mxGraphModel>
  </diagram>
</mxfile>
